#!OML:ASF H:\Terrain\Patient Classification 1\Walking\steve\steve.ASF
:FULLY-SPECIFIED
:DEGREES
136
root 8.63775 14.8159 -10.2172 14.999 -11.642 -7.65206
lowerback -1.49459 7.79143 2.65257
upperback -4.14647 10.3791 -2.18352
thorax -2.58314 5.096 -3.70967
lowerneck -10.7522 -2.69543 -3.42545
upperneck 7.25738 -3.63187 5.40232
head 4.08407 -1.5922 1.97044
rclavicle 2.23434e-013 -9.54166e-015
rhumerus -32.7891 7.99676 -82.9634
rradius 47.0583
rwrist -7.88945
rhand -18.6361 -39.0013
rfingers 7.12502
rthumb 7.65641 -68.8427
lclavicle 2.23434e-013 -9.54166e-015
lhumerus -61.5699 12.7843 47.6333
lradius 15.9239
lwrist -15.0099
lhand -15.7985 -19.7357
lfingers 7.12502
lthumb 10.3945 9.98736
rfemur 15.1701 10.4694 24.5486
rtibia 23.7109
rfoot 21.9615 7.7361
rtoes -8.13658
lfemur -60.6909 10.7798 -15.6419
ltibia 57.6632
lfoot -11.1969 1.23312
ltoes -4.25141
137
root 8.6587 14.8495 -10.0199 15.148 -11.4903 -7.68691
lowerback -1.45683 7.76012 2.70211
upperback -4.1633 10.3373 -2.26153
thorax -2.60218 5.07233 -3.82205
lowerneck -10.5858 -2.67629 -3.57993
upperneck 6.96046 -3.58541 5.50742
head 3.96882 -1.57344 2.03342
rclavicle 1.92821e-014 -9.54166e-015
rhumerus -33.4019 7.79 -83.3521
rradius 45.902
rwrist -7.73133
rhand -18.7933 -40.0497
rfingers 7.12502
rthumb 7.50471 -69.8966
lclavicle 1.92821e-014 -9.54166e-015
lhumerus -61.0877 14.2506 46.2429
lradius 16.1343
lwrist -16.0123
lhand -15.5453 -19.7262
lfingers 7.12502
lthumb 10.6388 9.98452
rfemur 13.7906 10.254 24.6504
rtibia 26.2371
rfoot 23.1289 7.34812
rtoes -12.8267
lfemur -60.245 10.653 -15.7738
ltibia 58.1589
lfoot -12.1847 0.863409
ltoes -4.29959
138
root 8.67482 14.8791 -9.82939 15.2646 -11.4041 -7.46331
lowerback -1.38623 7.7247 2.22458
upperback -4.27087 10.2886 -2.25399
thorax -2.83987 5.05425 -3.58784
lowerneck -10.709 -2.71241 -3.77496
upperneck 7.3616 -3.6139 5.45832
head 4.11514 -1.59003 2.04574
rclavicle 4.8901e-014 2.38542e-015
rhumerus -34.082 7.60304 -83.5917
rradius 44.7342
rwrist -7.43355
rhand -18.635 -41.026
rfingers 7.12502
rthumb 7.65745 -70.8674
lclavicle 4.8901e-014 2.38542e-015
lhumerus -60.559 14.5851 46.7426
lradius 16.6695
lwrist -15.1262
lhand -16.3384 -19.182
lfingers 7.12502
lthumb 9.87371 10.5665
rfemur 12.5253 10.2766 24.4951
rtibia 28.7159
rfoot 24.362 4.74226
rtoes -11.1319
lfemur -59.7932 10.378 -16.086
ltibia 58.4983
lfoot -12.968 0.711369
ltoes -4.22549
139
root 8.68896 14.9005 -9.64535 15.2507 -11.3289 -7.11275
lowerback -1.26655 7.58968 1.59764
upperback -4.25857 10.1035 -2.26794
thorax -3.00991 4.97516 -3.29395
lowerneck -11.2299 -2.66744 -3.55436
upperneck 7.82139 -3.55161 5.07515
head 4.32714 -1.56275 1.89007
rclavicle -2.127e-014 -2.06736e-014
rhumerus -34.3395 7.56529 -84.0234
rradius 43.4579
rwrist -7.46498
rhand -19.2551 -39.8137
rfingers 7.12502
rthumb 7.05895 -69.676
lclavicle -2.127e-014 -2.06736e-014
lhumerus -59.8027 14.4027 48.3012
lradius 17.1844
lwrist -13.1829
lhand -17.5347 -18.9996
lfingers 7.12502
lthumb 8.71937 10.8003
rfemur 11.5463 10.4092 24.2097
rtibia 31.0844
rfoot 25.1789 0.104543
rtoes -1.38727
lfemur -59.2214 10.0885 -16.5349
ltibia 58.7145
lfoot -13.6737 0.695959
ltoes -4.87027
140
root 8.70344 14.9276 -9.46428 15.0816 -11.0407 -6.69001
lowerback -1.03594 7.35921 1.07648
upperback -4.14436 9.78968 -2.32171
thorax -3.11537 4.83038 -3.10002
lowerneck -11.6093 -2.55423 -3.18646
upperneck 7.9165 -3.41002 4.68459
head 4.39892 -1.49862 1.71643
rclavicle 8.64713e-015 -1.82882e-014
rhumerus -34.6396 7.58876 -84.4911
rradius 42.3066
rwrist -7.47249
rhand -20.335 -37.9997
rfingers 7.12502
rthumb 6.01643 -67.8943
lclavicle 8.64713e-015 -1.82882e-014
lhumerus -58.9979 14.9701 48.8802
lradius 17.3236
lwrist -12.2556
lhand -18.4665 -19.2403
lfingers 7.12502
lthumb 7.82008 10.595
rfemur 10.7117 10.0213 23.8819
rtibia 33.4116
rfoot 25.3808 -3.15254
rtoes 4.79826
lfemur -58.4115 9.55694 -16.9923
ltibia 58.7769
lfoot -14.4508 0.632642
ltoes -5.05183
